<?xml version="1.0" encoding="UTF-8"?>
<!DOCTYPE svg PUBLIC "-//W3C//DTD SVG 1.0//EN" "http://www.w3.org/TR/2001/REC-SVG-20010904/DTD/svg10.dtd">
<svg xmlns:svg="http://www.w3.org/2000/svg" xmlns="http://www.w3.org/2000/svg" version="1.0" width="64" height="64" id="horse">
  <defs id="defs6352"/>
  <path d="M 34.90418,23.96875 C 35.21668,27.9375 32.74793,32.6875 24.15418,35.34375 C 17.68543,38.375 15.87293,46.71875 12.52918,47.09375 C 12.08049,46.460309 8.77176,46.796981 12.67926,42.054197 C 8.82066,46.740113 3.54128,42.599958 4.52918,38.46875 C 5.02918,32.96875 11.40418,28.0625 11.90418,23.96875 C 9.90418,18.625 16.40418,14.09375 16.40418,14.09375 L 16.52918,5.34375 L 24.52918,9.84375 L 28.77918,4.84375 L 32.02918,11.71875 C 57.02918,6.96875 58.49793,47.40625 59.59168,59.09375 L 19.90418,59.15625 C 17.71668,50.09375 33.09168,44.84375 31.65418,31.59375 M 24.52918,9.84375 L 16.90418,13.84375" style="fill:#ffffff;fill-opacity:1;stroke:#000000;stroke-width:2;stroke-linecap:round;stroke-linejoin:round;stroke-miterlimit:4;stroke-dashoffset:0;stroke-opacity:1" id="path4"/>
  <path d="M 72.090028,13.333774 C 72.862804,12.397584 74.108275,12.387569 74.891121,13.311249 C 75.673966,14.234929 75.706086,15.752375 74.963359,16.724019 C 74.220632,17.695664 72.976393,17.763926 72.165039,16.877542 C 71.353684,15.991158 71.273805,14.476332 71.985389,13.470664" transform="matrix(0.5197388,0.2157579,-0.3834038,0.9235808,-15.89728,-8.613086)" style="fill:#000000;fill-opacity:1;stroke:none;stroke-width:1.33304513;stroke-linecap:round;stroke-linejoin:round;stroke-miterlimit:4;stroke-dasharray:none;stroke-dashoffset:0;stroke-opacity:1" id="path6"/>
  <path d="M 72.090028,13.333774 C 72.862804,12.397584 74.108275,12.387569 74.891121,13.311249 C 75.673966,14.234929 75.706086,15.752375 74.963359,16.724019 C 74.220632,17.695664 72.976393,17.763926 72.165039,16.877542 C 71.353684,15.991158 71.273805,14.476332 71.985389,13.470664" transform="matrix(0.5197388,0.2157579,-0.3834038,0.9235808,-23.897283,10.136914)" style="fill:#000000;fill-opacity:1;stroke:none;stroke-width:1.33304513;stroke-linecap:round;stroke-linejoin:round;stroke-miterlimit:4;stroke-dasharray:none;stroke-dashoffset:0;stroke-opacity:1" id="path8"/>
</svg>